/* XPM */
static char *ceffe79d49d844d295dbcdf93ef1bedc[] = {
/* columns rows colors chars-per-pixel */
"64 64 111 2 ",
"   c #00000E",
".  c #000016",
"X  c #000019",
"o  c #000026",
"O  c #00002C",
"+  c #000034",
"@  c #01003C",
"#  c #0E0B3A",
"$  c #040044",
"%  c #0A0345",
"&  c #0F0A46",
"*  c #070049",
"=  c #0D004C",
"-  c #0F0848",
";  c #120A4B",
":  c #141242",
">  c #171849",
",  c #0F0051",
"<  c #160A52",
"1  c #1E1555",
"2  c #241A5C",
"3  c #252348",
"4  c #2B2954",
"5  c #262059",
"6  c #29235C",
"7  c #302E56",
"8  c #33305E",
"9  c #3D3C5D",
"0  c #2A1E61",
"q  c #2D2562",
"w  c #2F2A60",
"e  c #312667",
"r  c #322C63",
"t  c #35286B",
"y  c #393567",
"u  c #3B336B",
"i  c #3F396E",
"p  c #453C74",
"a  c #464171",
"s  c #4A4476",
"d  c #4E4B76",
"f  c #4D437B",
"g  c #4E4879",
"h  c #524C7C",
"j  c #5C5A7D",
"k  c #564C82",
"l  c #595383",
"z  c #5D5A83",
"x  c #615C85",
"c  c #635B8B",
"v  c #646185",
"b  c #656189",
"n  c #69638D",
"m  c #6C698C",
"M  c #6C6492",
"N  c #6E6A91",
"B  c #726C95",
"V  c #756D99",
"C  c #757295",
"Z  c #797695",
"A  c #7A7897",
"S  c #77709B",
"D  c #7B749D",
"F  c #7F77A2",
"G  c #7F78A0",
"H  c #817E9C",
"J  c #847CA4",
"K  c #83819E",
"L  c #8581A2",
"P  c #8985A5",
"I  c #8B85A9",
"U  c #8F8BAA",
"Y  c #908AAC",
"T  c #9392A6",
"R  c #9593AC",
"E  c #9896AE",
"W  c #938DB0",
"Q  c #9896B0",
"!  c #9A98B0",
"~  c #A09EB7",
"^  c #A4A3B7",
"/  c #A7A3BC",
"(  c #A9A4BE",
")  c #AAA8BD",
"_  c #A9A4C0",
"`  c #AEABC3",
"'  c #B1AEC3",
"]  c #B3B1C5",
"[  c #B6B3C9",
"{  c #BAB6CB",
"}  c #BDBBCC",
"|  c #BFBCD0",
" . c #C0BECD",
".. c #C2BED2",
"X. c #C4C1D3",
"o. c #CAC7D7",
"O. c #CBCAD5",
"+. c #CAC7D8",
"@. c #CCCAD9",
"#. c #CFD0D8",
"$. c #D4D3DE",
"%. c #D7D6E0",
"&. c #DDDCE5",
"*. c #E2DFEB",
"=. c #E4E2EB",
"-. c #EAE9EF",
";. c #EEEEF2",
":. c #F3F2F6",
">. c #F6F6F8",
",. c #FFFFFF",
"<. c None",
/* pixels */
"<.<.<.<.<.<.<.<.<.<.<.<.<.<.<.<.<.<.<.<.<.<.<.<.<.<.<.<.<.<.<.<.<.<.<.<.<.<.<.<.<.<.<.<.<.<.<.<.<.<.<.<.<.<.<.<.<.<.<.<.<.<.<.<.",
"<.<.<.<.<.<.<.<.<.<.<.<.<.<.<.<.<.<.<.<.<.<.<.<.<.<.<.<.= = = = = = = = = <.<.<.<.<.<.<.<.<.<.<.<.<.<.<.<.<.<.<.<.<.<.<.<.<.<.<.",
"<.<.<.<.<.<.<.<.<.<.<.<.<.<.<.<.<.<.<.<.<.<.<.= = = = = = = = = = = = = = = = = = <.<.<.<.<.<.<.<.<.<.<.<.<.<.<.<.<.<.<.<.<.<.<.",
"<.<.<.<.<.<.<.<.<.<.<.<.<.<.<.<.<.<.<.<.<.= = = = = = = = = = = = = = = = = = = = = , <.<.<.<.<.<.<.<.<.<.<.<.<.<.<.<.<.<.<.<.<.",
"<.<.<.<.<.<.<.<.<.<.<.<.<.<.<.<.<.<.<.= = = = = = = = = = = = = = = = = = = = = = = = = = <.<.<.<.<.<.<.<.<.<.<.<.<.<.<.<.<.<.<.",
"<.<.<.<.<.<.<.<.<.<.<.<.<.<.<.<.<.= = = = = = = = = = = = = = = = = = = = = = = = = = = = = , <.<.<.<.<.<.<.<.<.<.<.<.<.<.<.<.<.",
"<.<.<.<.<.<.<.<.<.<.<.<.<.<.<.<.= = = = = = = = = = = = = = = = = = = = = = = = = = = = = = = = <.<.<.<.<.<.<.<.<.<.<.<.<.<.<.<.",
"<.<.<.<.<.<.<.<.<.<.<.<.<.<.= = = = = = = = = = = , = = = = = = = = = = = = = , = = = = = = = = , = <.<.<.<.<.<.<.<.<.<.<.<.<.<.",
"<.<.<.<.<.<.<.<.<.<.<.<.<.= = = = = = = = = = = = = = = = = = = = = = = = = = = = = = = = = = = = = = <.<.<.<.<.<.<.<.<.<.<.<.<.",
"<.<.<.<.<.<.<.<.<.<.<.<.= = = = = = = = = = = = = = = = = = = = = = = = = = = = = = = = = = = = , = = = <.<.<.<.<.<.<.<.<.<.<.<.",
"<.<.<.<.<.<.<.<.<.<.<.= = = = = = = = = = = = = = = = = = = = = = = = = = = = = = = = = = = = = = = = = = <.<.<.<.<.<.<.<.<.<.<.",
"<.<.<.<.<.<.<.<.<.<.= = = = = = = = = = = = = = = = = = = = = = = = = = = = = = = = = = = = = = = = = = = = <.<.<.<.<.<.<.<.<.<.",
"<.<.<.<.<.<.<.<.<.= = = = = = = = = = = = = = = = = = = = = = = = = = = = = = = = = = = = = = = = = = = = = = <.<.<.<.<.<.<.<.<.",
"<.<.<.<.<.<.<.<.= = = = = = = = = = = = = = = = = = = = = = = = = = = = = = = = = = = = = = = = = = = = = = = = <.<.<.<.<.<.<.<.",
"<.<.<.<.<.<.<.<.= = = = = = = = = = = = = = = = = = = = = = = = = = = = = = = = = = = = = = = = = = = = = = = = <.<.<.<.<.<.<.<.",
"<.<.<.<.<.<.<.= = = = = = = = = = = = = = = = = = = = = = = = = , = = = = = = = = = = = = = = = = = = = = = = = = <.<.<.<.<.<.<.",
"<.<.<.<.<.<.<.= = = = = = = = = = = = = = = = = = = = = = = = = = = = = = = = = = = = = = = = = = = = = = = = = = = <.<.<.<.<.<.",
"<.<.<.<.<.<.= = = = = = = = = = = = = = = = = = = = = = = = = = = = = = = = = = = = = = = = = = = = = = = = = = = = <.<.<.<.<.<.",
"<.<.<.<.<.<.= = = = = = = = = = = = = = = = = = = = = = = = = = = = = = = = = = = = = = = = = = = = = = = = = = = = <.<.<.<.<.<.",
"<.<.<.<.<.= = = = = = = = = = = = = = = = = = = = = = = = = = = = = = = = = = = = = = = = = = = = = = = = = = = = = = <.<.<.<.<.",
"<.<.<.<.<.= = = = = = = = = = = = = = = = = = = = = = = = = = = = = = = = = = = = = = = = = = = = = = = = = = = = = = <.<.<.<.<.",
"<.<.<.<.= = = = = = = = = = = = = = = = = = = = = = = = = = = = = = = = = = = = = = = = = = = = = = = = = = = = = = = = <.<.<.<.",
"<.<.<.<.= = = , $ o O O O O @ = = = = = = = = = = = = = = = = = = = = = = = = = = = = = = , @ O O O O O @ , = = , = = = <.<.<.<.",
"<.<.<.<.= = = $ e S n n n S f $ = = = = = = = = = = = = = = = = = = = = = = = = = = = = = @ i D M M M H p @ , = = = = = <.<.<.<.",
"<.<.<.<.= = = O R ,.,.,.,.,.I O = = = = = = = = = = = = = = = = = = = = = = = = = = = = = O ' ,.,.,.,.,.S O = = = = = = <.<.<.<.",
"<.<.<.= = = = @ O.,.,.,.,.,.9   O O O + = = O O O O O O O O + % O O O O O + = O O O O O o $ =.,.,.,.,.,.3 . O O O @ , = = <.<.<.",
"<.<.<.= = = @ 1 >.,.,.,.,.,.P M D D H k $ @ n J S S D M k B C 1 N D D D J M $ c J S D D M s ,.,.,.,.,.:.S S D D c & @ = = <.<.<.",
"<.<.<.= = = + g ,.,.,.,.,.,.,.,.,.,.,.,.W ; ,.,.,.,.,.,.,.,.' l ,.,.,.,.,./ 1 ,.,.,.,.,.#.C ,.,.,.,.,.,.,.,.,.,.,.*.< @ = <.<.<.",
"<.<.= = = = O K ,.,.,.,.,.,.,.,.,.,.,.,.] h ,.,.,.,.,.,.,.,.C C ,.,.,.,.,.l i ,.,.,.,.,.! H ,.,.,.,.,.,.,.,.,.,.,.,.S O = = <.<.",
"<.<.= = = = + } ,.,.,.,.,.M G ,.,.,.,.,.L B ,.,.,.,.,.,.,.:.r ] ,.,.,.,.,.6 A ,.,.,.,.,.Z ^ ,.,.,.,.,.Y @.,.,.,.,.,.S O = = <.<.",
"<.<.= = = $ - ;.,.,.,.,.,.: T ,.,.,.,.,.x ! ,.,.,.,.,.$.t + > ,.,.,.,.,.:.- } ,.,.,.,.,.m $.,.,.,.,.;.# O.,.,.,.,.,.p + = = <.<.",
"<.<.= = = + i ,.,.,.,.,.&.% $.,.,.,.,.,.d $.,.,.,.,.,.8 X o h ,.,.,.,.,.{ - >.,.,.,.,.&.b ,.,.,.,.,.] ; ,.,.,.,.,.;.; $ = = <.<.",
"<.<.= = = O B ,.,.,.,.,.! ; ,.,.,.,.,.#.d ,.,.,.,.,.#.@ * O P ,.,.,.,.,.C 2 ,.,.,.,.,.) C ,.,.,.,.,.N w ,.,.,.,.,.| + = = = <.<.",
"<.<.= = = O ) ,.,.,.,.,.z y ,.,.,.,.,.R x ,.,.,.,.,.Q O = + | ,.,.,.,.,.4 j ,.,.,.,.,.K T ,.,.,.,.,.r b ,.,.,.,.,.P O = = = <.<.",
"<.<.<.= $ $ &.,.,.,.,.,.7 A ,.,.,.,.,.m P ,.,.,.,.,.x O $ < ;.,.,.,.,.,.h [ ,.,.,.,.,.m  .,.,.,.,.,.; ) ,.,.,.,.,.h O = = <.<.<.",
"<.<.<.= @ e ,.,.,.,.,.,.{ =.,.,.,.,.,.d | ,.,.,.,.,.r + @ 0 ,.,.,.,.,.,.,.,.,.,.,.,.;.v >.,.,.,.,.o.- -.,.,.,.,.,.1 @ = = <.<.<.",
"<.<.<.= @ 0 ,.,.,.,.,.,.,.,.,.,.,.,./ r ,.,.,.,.,.=.% $ % $ X.,.,.,.,.,.,.,.,.,.,.,.} C ,.,.,.,.,.L q ,.,.,.,.,.#.@ * = = <.<.<.",
"<.<.<.<.= @ u _ +.o.X.X...| { ] ` F O a *. .....&.Y @ = = $ - J X.+.o.o.+.+.@.@.+.=.C n *..... .*.y p ;.+.+.+.=.m + = = <.<.<.<.",
"<.<.<.<.= = + O @ @ @ @ @ + + + + O $ = @ @ @ @ + @ = = = , # o + @ @ $ @ $ $ @ $ @ $ % + @ @ @ + % = @ $ @ $ @ @ , = = <.<.<.<.",
"<.<.<.<.= = = = * $ = $ = $ = = = = = = $ = $ = $ = = = = = = = * * * $ $ * $ $ $ $ % = $ * = = $ = = $ $ $ $ $ = = = = <.<.<.<.",
"<.<.<.<.= = = = = = = = = = = = = = = = = = = = = = = = = = = = = = = = = = = = = = = = = = = = = = = = = = = = = = = = <.<.<.<.",
"<.<.<.<.<.= = = = = = = = = = = = = = = = = = = = = = = = = = = = = = = = = = = = = = = = = = = = = = = = = = = = = = <.<.<.<.<.",
"<.<.<.<.<.= = = = = = = = = = = = = = = = = = = = = = = = = = = = = = = = = = = = = = = = = = = = = = = = = = = = = = <.<.<.<.<.",
"<.<.<.<.<.= = = = = = = = = = = = = = = = = = = = = = = = = = = = = = = = = = = = = = = = = = = = = = = = = = = = = = <.<.<.<.<.",
"<.<.<.<.<.<.= = = = = = = = = = = = = = = = = = = = = = = = = = = = = = = = = = = = = = = = = = = = = = = = = = = = <.<.<.<.<.<.",
"<.<.<.<.<.<.= = = = = = = = = = = = = = = = = = = = = = = = = = = = = = = = = = = = = = = = = = = = = = = = = = = = <.<.<.<.<.<.",
"<.<.<.<.<.<.<.= = = = = = = = = = = = = = = = = = = = , = = = = = = = = = = = = = = = = = = = = = = = = = = = = = <.<.<.<.<.<.<.",
"<.<.<.<.<.<.<.<.= = = = = = = = = = = = = = = = = = = = = = = = = = = = = = = = = = = = = = = = = = = = = = = = <.<.<.<.<.<.<.<.",
"<.<.<.<.<.<.<.<.= = = = = = = = = = = = = = = = = = = = = = = = = = = = = = = = = = = = = = = = = = = = = = = = <.<.<.<.<.<.<.<.",
"<.<.<.<.<.<.<.<.<.= = = = = = = = = = = = = = = = = = = = = = = = = = = = = = = = = = = = = = = = = = = = = = <.<.<.<.<.<.<.<.<.",
"<.<.<.<.<.<.<.<.<.<.= = = = = = = = = = = = = = = = = = = = = = = = = = = = = = = = = = = = = = = = = = = = <.<.<.<.<.<.<.<.<.<.",
"<.<.<.<.<.<.<.<.<.<.<.= = = = = = = = = = = = = = = = = = = = = = = = = = = = = = = = = = = = = = = = = = <.<.<.<.<.<.<.<.<.<.<.",
"<.<.<.<.<.<.<.<.<.<.<.<.= = = = = = = = = = = = = = = = = = = = = = = = = = = = = = = = = = = = = = = = <.<.<.<.<.<.<.<.<.<.<.<.",
"<.<.<.<.<.<.<.<.<.<.<.<.<.= = = = = = = = = = = = = = = = = = = = = , = = = = = = = = = = = = = = = = <.<.<.<.<.<.<.<.<.<.<.<.<.",
"<.<.<.<.<.<.<.<.<.<.<.<.<.<.= = = = = = = = = = = = = = = = = = = = = = = = = = = = = = = = = = = = <.<.<.<.<.<.<.<.<.<.<.<.<.<.",
"<.<.<.<.<.<.<.<.<.<.<.<.<.<.<.= = , = = = = = = = = = = = = = = = = = = = = = = = = = = = = = = = <.<.<.<.<.<.<.<.<.<.<.<.<.<.<.",
"<.<.<.<.<.<.<.<.<.<.<.<.<.<.<.<.<.= = = = = = = = = = = = = = = = = = = = = = = = = = = = = = <.<.<.<.<.<.<.<.<.<.<.<.<.<.<.<.<.",
"<.<.<.<.<.<.<.<.<.<.<.<.<.<.<.<.<.<.= = = = = = = = = = = = = = = = = = = = = = = = = = = = <.<.<.<.<.<.<.<.<.<.<.<.<.<.<.<.<.<.",
"<.<.<.<.<.<.<.<.<.<.<.<.<.<.<.<.<.<.<.<.= = = = = , = = = = = = = = = = = = = = = = = = <.<.<.<.<.<.<.<.<.<.<.<.<.<.<.<.<.<.<.<.",
"<.<.<.<.<.<.<.<.<.<.<.<.<.<.<.<.<.<.<.<.<.<.<.= = = = = = = = = = = = = = = = = = <.<.<.<.<.<.<.<.<.<.<.<.<.<.<.<.<.<.<.<.<.<.<.",
"<.<.<.<.<.<.<.<.<.<.<.<.<.<.<.<.<.<.<.<.<.<.<.<.<.<.<.= = = = = = = = = = <.<.<.<.<.<.<.<.<.<.<.<.<.<.<.<.<.<.<.<.<.<.<.<.<.<.<.",
"<.<.<.<.<.<.<.<.<.<.<.<.<.<.<.<.<.<.<.<.<.<.<.<.<.<.<.<.<.<.<.<.<.<.<.<.<.<.<.<.<.<.<.<.<.<.<.<.<.<.<.<.<.<.<.<.<.<.<.<.<.<.<.<.",
"<.<.<.<.<.<.<.<.<.<.<.<.<.<.<.<.<.<.<.<.<.<.<.<.<.<.<.<.<.<.<.<.<.<.<.<.<.<.<.<.<.<.<.<.<.<.<.<.<.<.<.<.<.<.<.<.<.<.<.<.<.<.<.<.",
"<.<.<.<.<.<.<.<.<.<.<.<.<.<.<.<.<.<.<.<.<.<.<.<.<.<.<.<.<.<.<.<.<.<.<.<.<.<.<.<.<.<.<.<.<.<.<.<.<.<.<.<.<.<.<.<.<.<.<.<.<.<.<.<."
};
