/* XPM */
static char *f8d4c1fe29644b9380bcd907e67c93b1[] = {
/* columns rows colors chars-per-pixel */
"32 32 157 2 ",
"   c #00000E",
".  c #00001C",
"X  c #00001F",
"o  c #040320",
"O  c #000029",
"+  c #00002A",
"@  c #00002D",
"#  c #00002E",
"$  c #00002F",
"%  c #000030",
"&  c #000033",
"*  c #020032",
"=  c #000034",
"-  c #000036",
";  c #000037",
":  c #000038",
">  c #00003A",
",  c #00003B",
"<  c #00003C",
"1  c #00003D",
"2  c #00003E",
"3  c #00003F",
"4  c #05003E",
"5  c #000041",
"6  c #000042",
"7  c #070043",
"8  c #020044",
"9  c #030044",
"0  c #030045",
"q  c #050044",
"w  c #040045",
"e  c #070045",
"r  c #040046",
"t  c #050046",
"y  c #040047",
"u  c #050047",
"i  c #070046",
"p  c #060047",
"a  c #070047",
"s  c #080043",
"d  c #080044",
"f  c #050048",
"g  c #070049",
"h  c #080048",
"j  c #090049",
"k  c #0A004A",
"l  c #0B004A",
"z  c #0B004B",
"x  c #0D004A",
"c  c #0C004B",
"v  c #0C004C",
"b  c #0D004C",
"n  c #0D004D",
"m  c #0E004C",
"M  c #0D004E",
"N  c #0F004E",
"B  c #0F004F",
"V  c #110A4B",
"C  c #160D4F",
"Z  c #180C54",
"A  c #1D1258",
"S  c #1E1258",
"D  c #1F1359",
"F  c #1D115C",
"G  c #23155D",
"H  c #25185F",
"J  c #291E61",
"K  c #2A1F61",
"L  c #2E2264",
"P  c #3D3370",
"I  c #3F3471",
"U  c #3F3571",
"Y  c #433A72",
"T  c #4B407A",
"R  c #52487E",
"E  c #534980",
"W  c #595084",
"Q  c #5B5285",
"!  c #5F5788",
"~  c #675F8F",
"^  c #686190",
"/  c #79729C",
"(  c #7A739C",
")  c #7D769E",
"_  c #7E769F",
"`  c #817BA2",
"'  c #8882A7",
"]  c #8A84A8",
"[  c #8F87AC",
"{  c #8F89AC",
"}  c #918BAD",
"|  c #918CAE",
" . c #9894B3",
".. c #9C96B5",
"X. c #9C97B5",
"o. c #A29DBA",
"O. c #A39EBB",
"+. c #A49FBB",
"@. c #A8A4BF",
"#. c #AEA9C3",
"$. c #AFABC4",
"%. c #B2ADC5",
"&. c #B6B2C8",
"*. c #B6B2C9",
"=. c #B7B7C9",
"-. c #B6B6CA",
";. c #B9B5CC",
":. c #BAB7CC",
">. c #BABBCA",
",. c #BBB8CD",
"<. c #BCB9CC",
"1. c #BEBBCF",
"2. c #C0BDD0",
"3. c #C3BFD2",
"4. c #C3C0D3",
"5. c #C5C1D4",
"6. c #C5C2D4",
"7. c #C5C2D5",
"8. c #C6C3D4",
"9. c #C7C4D5",
"0. c #C7C5D6",
"q. c #C9C6D7",
"w. c #CAC7D8",
"e. c #CCC9D9",
"r. c #CDCADA",
"t. c #D2D0DE",
"y. c #D3D1DE",
"u. c #D5D3E0",
"i. c #D6D4E1",
"p. c #D7D5E1",
"a. c #D7D5E2",
"s. c #DAD8E3",
"d. c #DCDAE5",
"f. c #DEDCE6",
"g. c #DFDEE7",
"h. c #E0DFE8",
"j. c #E1E0E9",
"k. c #E2E0E9",
"l. c #E3E1EA",
"z. c #E3E2EA",
"x. c #E4E3EB",
"c. c #E7E6ED",
"v. c #E7E6EE",
"b. c #EBEAF0",
"n. c #EFEFF3",
"m. c #F0EFF4",
"M. c #F1F0F4",
"N. c #F3F2F6",
"B. c #F5F4F7",
"V. c #F6F6F8",
"C. c #F8F8FA",
"Z. c #F9F8FA",
"A. c #FAF9FB",
"S. c #FBFAFC",
"D. c #FEFFFF",
"F. c gray100",
"G. c None",
/* pixels */
"G.G.G.G.G.G.G.G.G.G.G.G.G.G.b b b b G.G.G.G.G.G.G.G.G.G.G.G.G.G.",
"G.G.G.G.G.G.G.G.G.G.G.b b b b b b b b b b G.G.G.G.G.G.G.G.G.G.G.",
"G.G.G.G.G.G.G.G.G.b b b b b b b b b b b b b b G.G.G.G.G.G.G.G.G.",
"G.G.G.G.G.G.G.b b b b b b b b b b b b b b b b b b G.G.G.G.G.G.G.",
"G.G.G.G.G.G.b b b b b b b b b b b b b b b b b b b b G.G.G.G.G.G.",
"G.G.G.G.G.b b b b b b b b b b b b b b b b b b b b b b G.G.G.G.G.",
"G.G.G.G.b b b b b b b b b b b b b b b b b b b b b b b b G.G.G.G.",
"G.G.G.G.b b b b b b b b b b b b b b b b b b b b b b b b G.G.G.G.",
"G.G.G.b b b b b b b b b b b b b b b b b b b b b b b b b b G.G.G.",
"G.G.G.b b b b b b b b b b b b b b b b b b b b b b b b b b G.G.G.",
"G.G.b b 1 ; ; t B b b b b b b b b b b b b b b , ; ; t b b b G.G.",
"G.G.b d K P P D t l b l l l l l l l l c l l 7 L I I D s b b G.G.",
"G.G.g , h.F.F.K . * , , ; * ; 1 ; ; 1 1 ; $ , n.F.F.D X * t G.G.",
"G.b 1 G F.F.F.r.=.$.Y ..;.&.6.) +.,.' ! ;.>.[ N.F.F.3.=.| V d G.",
"G.b $ W F.F.s.B.F.F.;.F.F.F.F.+.F.F.%.$.F.F.q.C.F.c.F.F.F.T * G.",
"G.b + } F.F.( +.F.c.@.F.F.6.o ] F.F.` 4.F.d.&.F.F.) 1.F.F.H , G.",
"G.g , 9.F.C.^ c.F.6.$.F.F.R   p.F.N.~ N.F.6.3.F.C.( B.F.t., t G.",
"G., D F.F.F.q.F.F.4.t.F.F.Z t F.F.F.x.F.F.6.b.F.i.{ F.F.+.+ b G.",
"G.G.C &.f.z.n.p.<.Q e.f.9.8 4  .d.v.C.z.z...t.f.' ' z.z.R * G.G.",
"G.G.t ; t t 8 8 ; , l 8 8 l c ; 9 t t t t t t 8 t c t t 9 b G.G.",
"G.G.b l t t t g l l t t t b b b t t t t t l g t l g 9 g z b G.G.",
"G.G.G.b b b b b b b b b b b b b b b b b b l b b b b b b b G.G.G.",
"G.G.G.b b b b b b b b b b b b b b b b b b b b b b b b b b G.G.G.",
"G.G.G.G.b b b b b b b b b b b b b b b b b b b b b b b b G.G.G.G.",
"G.G.G.G.b b b b b b b b b b b b b b b b b b b b b b b b G.G.G.G.",
"G.G.G.G.G.b b b b b b b b b b b b b b b b b b b b b b G.G.G.G.G.",
"G.G.G.G.G.G.b b b b b b b b b b b b b b b b b b b b G.G.G.G.G.G.",
"G.G.G.G.G.G.G.b b b b b b b b b b b b b b b b b b G.G.G.G.G.G.G.",
"G.G.G.G.G.G.G.G.G.b b b b b b b b b b b b b b G.G.G.G.G.G.G.G.G.",
"G.G.G.G.G.G.G.G.G.G.G.b b b b b b b b b b G.G.G.G.G.G.G.G.G.G.G.",
"G.G.G.G.G.G.G.G.G.G.G.G.G.G.b b b b G.G.G.G.G.G.G.G.G.G.G.G.G.G.",
"G.G.G.G.G.G.G.G.G.G.G.G.G.G.G.G.G.G.G.G.G.G.G.G.G.G.G.G.G.G.G.G."
};
