/* XPM */
static char *ec605ecb541b49c287e633aefeef197c[] = {
/* columns rows colors chars-per-pixel */
"16 16 85 1 ",
"  c #000028",
". c #00002A",
"X c #00002B",
"o c #00002C",
"O c #00002F",
"+ c #000030",
"@ c #000031",
"# c #010230",
"$ c #010032",
"% c #000034",
"& c #010035",
"* c #020035",
"= c #010036",
"- c #020037",
"; c #000038",
": c #030039",
"> c #00003B",
", c #03003C",
"< c #00003E",
"1 c #06003E",
"2 c #000042",
"3 c #030043",
"4 c #070046",
"5 c #060047",
"6 c #080041",
"7 c #080045",
"8 c #0A0045",
"9 c #090047",
"0 c #0B004A",
"q c #0D0349",
"w c #0D004C",
"e c #0E004D",
"r c #0F004E",
"t c #110B48",
"y c #1A134F",
"u c #1C1354",
"i c #22185B",
"p c #261C60",
"a c #2C2163",
"s c #2D2661",
"d c #2F2168",
"f c #3E376E",
"g c #403571",
"h c #413772",
"j c #423B71",
"k c #443A74",
"l c #4A496D",
"z c #4E467B",
"x c #50497B",
"c c #5B5385",
"v c #5F5986",
"b c #635D8B",
"n c #665E8D",
"m c #6A6490",
"M c #726B96",
"N c #7D769F",
"B c #7F7E99",
"V c #8079A1",
"C c #8078A2",
"Z c #817BA2",
"A c #857EA5",
"S c #8883A6",
"D c #8A84A9",
"F c #8B85A9",
"G c #8D86AB",
"H c #9D98B6",
"J c #A3A0BA",
"K c #A8A3BE",
"L c #C1BDD1",
"P c #C6C3D5",
"I c #CECBDB",
"U c #D0CDDC",
"Y c #D5D3E0",
"T c #DCDBE5",
"R c #E1DFE9",
"E c #E4E2EB",
"W c #EEEDF2",
"Q c #EEEDF3",
"! c #F0EFF4",
"~ c #F3F3F6",
"^ c #F8F8FA",
"/ c #F9F9FB",
"( c #FCFCFD",
") c gray100",
"_ c None",
/* pixels */
"______wwww______",
"____wwwwwwww____",
"___wwwwwwwwww___",
"__wwwwwwwwwwww__",
"_w<3wwwwwww4<qw_",
"_9pyo:o&@:Xtdo<_",
"&q)IhjCmcxjJ)Nd4",
"Xf)U~Y)K)L^WR)H3",
"&N)TW)Bl)E!/P)b@",
"_hFAzCsiFFnMvSu_",
"_1XX&o68XX@o&X8_",
"__wwwwwwqwwwww__",
"__wwwwwwwwwwww__",
"___wwwwwwwwww___",
"_____wwwwww_____",
"______wwww______"
};
